<svg xmlns="http://www.w3.org/2000/svg" width="880" height="260" viewBox="0 0 880 260" role="img" aria-label="341 of 7305 routes verified in the last run">
<style>text { font-family: ui-sans-serif, system-ui, -apple-system, 'Segoe UI', Roboto, 'Helvetica Neue', Arial, sans-serif; }</style>
<rect width="880" height="260" rx="6" fill="#0e1a24"/>
<text x="32" y="42" fill="#dce8f0" font-size="18" font-weight="600">What happened to the 7,305 configs collected last run</text>
<text x="32" y="66" fill="#7793a8" font-size="13">rebuilt hourly &#183; 2026-09-13 13:30 UTC</text>
<text x="130" y="105" fill="#7793a8" font-size="13" text-anchor="end">collected</text><rect x="150" y="92" width="560" height="20" rx="2" fill="#15242f"/><rect x="150" y="92" width="560" height="20" rx="2" fill="#22384a"/><text x="724" y="106" fill="#dce8f0" font-size="13">7,305</text><text x="130" y="133" fill="#7793a8" font-size="13" text-anchor="end">unique</text><rect x="150" y="120" width="560" height="20" rx="2" fill="#15242f"/><rect x="150" y="120" width="302" height="20" rx="2" fill="#22384a"/><text x="724" y="134" fill="#dce8f0" font-size="13">3,937</text><text x="130" y="161" fill="#7793a8" font-size="13" text-anchor="end">plausible</text><rect x="150" y="148" width="560" height="20" rx="2" fill="#15242f"/><rect x="150" y="148" width="200" height="20" rx="2" fill="#22384a"/><text x="724" y="162" fill="#dce8f0" font-size="13">2,610</text><text x="130" y="189" fill="#7793a8" font-size="13" text-anchor="end">reachable</text><rect x="150" y="176" width="560" height="20" rx="2" fill="#15242f"/><rect x="150" y="176" width="69" height="20" rx="2" fill="#22384a"/><text x="724" y="190" fill="#dce8f0" font-size="13">904</text><text x="130" y="217" fill="#7793a8" font-size="13" text-anchor="end">verified</text><rect x="150" y="204" width="560" height="20" rx="2" fill="#15242f"/><rect x="150" y="204" width="26" height="20" rx="2" fill="#5bc08c"/><text x="724" y="218" fill="#5bc08c" font-size="13">341</text>
</svg>
